<svg width="70" height="70" viewBox="0 0 70 70" fill="none" xmlns="http://www.w3.org/2000/svg">
<circle cx="35" cy="35" r="35" fill="#FF6B3C" fill-opacity="0.2"/>
<path fill-rule="evenodd" clip-rule="evenodd" d="M33.5478 14.0248C31.6138 14.2173 30.5095 14.4187 29.0516 14.8449C25.7489 15.8105 22.8787 17.492 20.3752 19.9281C16.959 23.2524 14.9213 27.2024 14.1905 31.9167C13.9543 33.4399 13.9343 36.3417 14.1497 37.8282C14.7123 41.7103 16.2283 45.2114 18.645 48.2101C18.9927 48.6416 19.7713 49.4754 20.3752 50.0631C22.1004 51.7418 23.6891 52.8572 25.8155 53.8826C28.4004 55.1291 30.7181 55.7411 33.6506 55.9517C36.9098 56.1857 40.4561 55.5628 43.4381 54.2324C46.078 53.0546 48.0866 51.6408 50.1453 49.511C55.6644 43.8018 57.4537 35.4514 54.7746 27.9054C54.1138 26.044 52.9906 23.9742 51.7258 22.2867C50.962 21.2677 49.2259 19.4841 48.1686 18.6321C45.2495 16.2798 41.8058 14.7739 38.0655 14.214C37.0477 14.0616 34.3241 13.9476 33.5478 14.0248ZM36.4109 18.9877C40.3805 19.364 43.8611 21.0507 46.6197 23.9351C52.5455 30.131 52.5431 39.8598 46.6141 46.0618C44.1001 48.6914 41.1047 50.263 37.4048 50.8934C36.2473 51.0907 33.7706 51.0907 32.5722 50.8934C29.9193 50.4568 27.4344 49.4094 25.3168 47.8353C24.448 47.1894 22.7351 45.4633 22.0676 44.5609C20.5417 42.498 19.5346 40.0897 19.0805 37.4177C18.8864 36.276 18.8856 33.6984 19.079 32.5735C19.5405 29.8873 20.5428 27.4918 22.0676 25.4304C22.7351 24.528 24.448 22.8018 25.3168 22.156C28.5501 19.7525 32.5196 18.6189 36.4109 18.9877ZM33.8081 21.4558C30.4044 21.7363 27.0329 23.4388 24.7831 26.0132C19.3587 32.2197 20.5957 41.6963 27.4284 46.2791C34.2285 50.8399 43.4693 48.3869 47.1567 41.0419C48.7377 37.8927 49.0079 34.0749 47.887 30.7237C46.3588 26.155 42.5363 22.7203 37.8506 21.7056C37.1538 21.5547 35.2281 21.3484 34.7885 21.3777C34.6934 21.384 34.2523 21.4191 33.8081 21.4558ZM38.0657 31.9579L41.1041 34.9959L38.0447 38.054L34.9853 41.1122L31.9258 38.054L28.8665 34.9959L31.9049 31.9579C33.5761 30.287 34.9622 28.9198 34.9853 28.9198C35.0084 28.9198 36.3945 30.287 38.0657 31.9579Z" fill="#FF6B3C"/>
</svg>
