<svg width="18" height="18" viewBox="0 0 18 18" fill="none" xmlns="http://www.w3.org/2000/svg">
<path fill-rule="evenodd" clip-rule="evenodd" d="M18 9C18 13.9706 13.9706 18 9 18C4.02944 18 0 13.9706 0 9C0 4.02944 4.02944 0 9 0C13.9706 0 18 4.02944 18 9ZM9 14C8.44771 14 8 13.5523 8 13V10H5C4.44772 10 4 9.55229 4 9C4 8.44771 4.44772 8 5 8H8V5C8 4.44771 8.44771 4 9 4C9.55228 4 10 4.44771 10 5V8H13C13.5523 8 14 8.44771 14 9C14 9.55229 13.5523 10 13 10H10V13C10 13.5523 9.55229 14 9 14Z" fill="#0A0B10"/>
</svg>
