<svg width="70" height="70" viewBox="0 0 70 70" fill="none" xmlns="http://www.w3.org/2000/svg">
<circle cx="35" cy="35" r="35" fill="#FF6B3C" fill-opacity="0.2"/>
<circle cx="35" cy="35" r="35" fill="#FF6B3C" fill-opacity="0.2"/>
<path fill-rule="evenodd" clip-rule="evenodd" d="M19.2119 20.8787C18.3333 21.7574 18.3333 23.1716 18.3333 26V44C18.3333 46.8284 18.3333 48.2426 19.2119 49.1213C20.0906 50 21.5048 50 24.3333 50H45.6666C48.495 50 49.9092 50 50.7879 49.1213C51.6666 48.2426 51.6666 46.8284 51.6666 44V43.3333H41.6666C40.7373 43.3333 40.2726 43.3333 39.8862 43.2565C38.2995 42.9408 37.0591 41.7005 36.7434 40.1137C36.6666 39.7273 36.6666 39.2626 36.6666 38.3333C36.6666 37.404 36.6666 36.9394 36.7434 36.553C37.0591 34.9662 38.2995 33.7258 39.8862 33.4102C40.2726 33.3333 40.7373 33.3333 41.6666 33.3333H51.6666V26C51.6666 23.1716 51.6666 21.7574 50.7879 20.8787C49.9092 20 48.495 20 45.6666 20H24.3333C21.5048 20 20.0906 20 19.2119 20.8787ZM26.6666 26.8333C25.8382 26.8333 25.1666 27.5049 25.1666 28.3333C25.1666 29.1618 25.8382 29.8333 26.6666 29.8333H31.6666C32.495 29.8333 33.1666 29.1618 33.1666 28.3333C33.1666 27.5049 32.495 26.8333 31.6666 26.8333H26.6666Z" fill="#FF6B3C"/>
<path d="M43.3334 38.3333H41.6667" stroke="#FF6B3C" stroke-width="3" stroke-linecap="round"/>
</svg>
