<svg width="42" height="42" viewBox="0 0 42 42" fill="none" xmlns="http://www.w3.org/2000/svg">
<path fill-rule="evenodd" clip-rule="evenodd" d="M12.181 22.6947L9.62949 20.6536C9.2213 21.8608 9 23.1542 9 24.4993C9 31.1267 14.3726 36.4993 21 36.4993C27.6274 36.4993 33 31.1267 33 24.4993C33 23.1542 32.7787 21.8608 32.3705 20.6536L29.819 22.6947C29.9377 23.2778 30 23.8813 30 24.4993C30 29.4699 25.9706 33.4993 21 33.4993C16.0294 33.4993 12 29.4699 12 24.4993C12 23.8813 12.0623 23.2778 12.181 22.6947Z" fill="#FF6B3C"/>
<path d="M21 22.75L20.063 23.9213L21 24.6709L21.937 23.9213L21 22.75ZM22.5 7C22.5 6.17157 21.8284 5.5 21 5.5C20.1716 5.5 19.5 6.17157 19.5 7L22.5 7ZM11.313 16.9213L20.063 23.9213L21.937 21.5787L13.187 14.5787L11.313 16.9213ZM21.937 23.9213L30.687 16.9213L28.813 14.5787L20.063 21.5787L21.937 23.9213ZM22.5 22.75L22.5 7L19.5 7L19.5 22.75L22.5 22.75Z" fill="#FF6B3C"/>
</svg>
