<svg width="18" height="18" viewBox="0 0 18 18" fill="none" xmlns="http://www.w3.org/2000/svg">
<path fill-rule="evenodd" clip-rule="evenodd" d="M17 4H1V6.6C1.98184 6.6 2.77778 7.39594 2.77778 8.37778V11C2.77778 13.8284 2.77778 15.2426 3.65646 16.1213C4.53514 17 5.94935 17 8.77777 17H9.22222C12.0506 17 13.4649 17 14.3435 16.1213C15.2222 15.2426 15.2222 13.8284 15.2222 11V8.37778C15.2222 7.39594 16.0182 6.6 17 6.6V4ZM8 8C8 7.44772 7.55228 7 7 7C6.44772 7 6 7.44772 6 8V13C6 13.5523 6.44772 14 7 14C7.55228 14 8 13.5523 8 13V8ZM12 8C12 7.44772 11.5523 7 11 7C10.4477 7 10 7.44772 10 8V13C10 13.5523 10.4477 14 11 14C11.5523 14 12 13.5523 12 13V8Z" fill="#E23147"/>
<path d="M7.06815 1.37059C7.1821 1.26427 7.43319 1.17033 7.78248 1.10332C8.13177 1.03632 8.55973 1 9 1C9.44027 1 9.86823 1.03632 10.2175 1.10332C10.5668 1.17033 10.8179 1.26427 10.9319 1.37059" stroke="#E23147" stroke-width="2" stroke-linecap="round"/>
</svg>
