<svg width="32" height="32" viewBox="0 0 32 32" fill="none" xmlns="http://www.w3.org/2000/svg">
<path fill-rule="evenodd" clip-rule="evenodd" d="M19.3322 4.78598C18.3262 4.28204 17.1931 4 15.9999 4C12.2046 4 9.01616 6.85376 8.59703 10.6259L8.2613 13.6475C8.19307 14.2616 8.15895 14.5686 8.10207 14.8691C7.9645 15.5959 7.72682 16.3 7.39582 16.9614C7.25895 17.2349 7.1 17.4998 6.78212 18.0297L5.8173 19.6377C5.01155 20.9806 4.60867 21.6521 4.8959 22.1594C5.18313 22.6667 5.96618 22.6667 7.53229 22.6667H24.4675C26.0336 22.6667 26.8167 22.6667 27.1039 22.1594C27.3911 21.6521 26.9883 20.9806 26.1825 19.6377L25.2177 18.0297L25.2176 18.0295C24.8998 17.4998 24.7409 17.2349 24.604 16.9614C24.273 16.3 24.0353 15.5959 23.8978 14.8691C23.8413 14.5708 23.8073 14.266 23.74 13.6608C20.731 13.525 18.3332 11.0425 18.3332 8C18.3332 6.80655 18.7022 5.69926 19.3322 4.78598ZM21.6987 6.65177C22.6143 7.73842 23.2272 9.09513 23.3997 10.5989C22.216 10.3266 21.3332 9.26639 21.3332 8C21.3332 7.50812 21.4664 7.04735 21.6987 6.65177Z" fill="#999CB1"/>
<path d="M12 22.6665C12 23.1918 12.1035 23.7119 12.3045 24.1972C12.5055 24.6825 12.8001 25.1235 13.1716 25.4949C13.543 25.8664 13.984 26.161 14.4693 26.362C14.9546 26.563 15.4747 26.6665 16 26.6665C16.5253 26.6665 17.0454 26.563 17.5307 26.362C18.016 26.161 18.457 25.8664 18.8284 25.4949C19.1999 25.1235 19.4945 24.6825 19.6955 24.1972C19.8965 23.7119 20 23.1918 20 22.6665L16 22.6665H12Z" fill="#999CB1"/>
<circle cx="24" cy="8" r="3" fill="#FF6B3C"/>
</svg>
