<svg width="20" height="28" viewBox="0 0 20 28" fill="none" xmlns="http://www.w3.org/2000/svg">
<path fill-rule="evenodd" clip-rule="evenodd" d="M5.1719 1.5582L10.0913 0.785161C14.3854 0.110371 16.5324 -0.227024 17.9328 0.970469C19.3332 2.16796 19.3332 4.34137 19.3332 8.68818V12.4995H11.7874L15.1711 8.2699L12.8285 6.39582L7.4952 13.0625L6.74557 13.9995L7.4952 14.9366L12.8285 21.6032L15.1711 19.7292L11.7874 15.4995H19.3332V19.3109C19.3332 23.6577 19.3332 25.8311 17.9328 27.0286C16.5324 28.2261 14.3854 27.8887 10.0913 27.2139L5.1719 26.4409C3.02159 26.1029 1.94644 25.934 1.30647 25.1856C0.666504 24.4372 0.666504 23.3489 0.666504 21.1722V6.82688C0.666504 4.65018 0.666504 3.56183 1.30647 2.81345C1.94644 2.06506 3.02159 1.89611 5.1719 1.5582Z" fill="#E23147"/>
</svg>
