<svg width="32" height="32" viewBox="0 0 32 32" fill="none" xmlns="http://www.w3.org/2000/svg">
<path d="M3 9H26C27.6569 9 29 10.3431 29 12H3V9Z" fill="#999CB1"/>
<path d="M3 15H29V21.6C29 23.8402 29 24.9603 28.564 25.816C28.1805 26.5686 27.5686 27.1805 26.816 27.564C25.9603 28 24.8402 28 22.6 28H9.4C7.15979 28 6.03969 28 5.18404 27.564C4.43139 27.1805 3.81947 26.5686 3.43597 25.816C3 24.9603 3 23.8402 3 21.6V15Z" fill="#999CB1"/>
<path d="M3 9C3 6.80835 3 5.71252 3.60531 4.97495C3.71612 4.83993 3.83993 4.71612 3.97495 4.60531C4.71252 4 5.80835 4 8 4H10.3147C11.537 4 12.1482 4 12.6837 4.24955C13.2192 4.4991 13.6123 4.96706 14.3985 5.90298L17 9H3Z" fill="#999CB1"/>
</svg>
