<svg width="24" height="26" viewBox="0 0 24 26" fill="none" xmlns="http://www.w3.org/2000/svg">
<path fill-rule="evenodd" clip-rule="evenodd" d="M0.470505 8.38382C0 9.35058 0 10.4504 0 12.6501V19.5197C0 22.5746 0 24.102 1.00421 25.051C1.93951 25.9349 3.40575 25.9955 6.21428 25.9997V17.8998C6.21428 16.0979 7.73439 14.7797 9.42857 14.7797H14.5714C16.2656 14.7797 17.7857 16.0979 17.7857 17.8998V25.9997C20.5943 25.9955 22.0605 25.9349 22.9958 25.051C24 24.102 24 22.5746 24 19.5197V12.6501C24 10.4504 24 9.35058 23.5295 8.38382C23.059 7.41707 22.1754 6.70131 20.4081 5.2698L18.6939 3.88117C15.4996 1.29372 13.9025 0 12 0C10.0975 0 8.50041 1.29372 5.30615 3.88117L5.30615 3.88117L3.59186 5.2698C1.82463 6.70131 0.94101 7.41707 0.470505 8.38382ZM14.7857 26V17.8998V17.8996C14.7857 17.8944 14.7857 17.8751 14.7533 17.8444C14.7189 17.8119 14.658 17.7797 14.5714 17.7797H9.42857C9.34197 17.7797 9.28105 17.8119 9.24666 17.8444C9.21424 17.8751 9.21427 17.8944 9.21428 17.8996V17.8998V26H14.7857Z" fill="#FF6B3C"/>
</svg>
