<svg width="70" height="70" viewBox="0 0 70 70" fill="none" xmlns="http://www.w3.org/2000/svg">
<circle cx="35" cy="35" r="35" fill="#FF6B3C" fill-opacity="0.2"/>
<path fill-rule="evenodd" clip-rule="evenodd" d="M25.5752 20.0304L19.9982 23.2528C18.1428 24.3249 17 26.3051 17 28.4479L17 35.0006L17.0001 41.5487C17.0001 43.694 18.1455 45.6761 20.0043 46.7472L25.8598 50.1215L31.999 53.4673C33.7565 54.4251 35.8759 54.4435 37.6497 53.5163L44.2215 50.0812L49.9986 46.7478C51.8557 45.6762 52.9999 43.695 52.9999 41.5509V34.4529L53 28.4461C53 26.3042 51.8582 24.3247 50.0042 23.2523L44.434 20.0304L37.786 16.501C36.019 15.5629 33.9008 15.5672 32.1377 16.5123L25.5752 20.0304ZM25.4443 30.3841C25.6676 30.6009 25.9469 31.1684 26.7834 33.1047C27.3648 34.4505 27.8773 35.6124 27.9223 35.6868C27.9786 35.7799 28.0051 35.0519 28.007 33.3575C28.0096 31.0384 28.0194 30.8776 28.1714 30.6377C28.6665 29.8559 29.8337 29.8905 30.2648 30.6999C30.4473 31.0426 30.4477 31.0505 30.4477 35.0006C30.4477 38.9507 30.4473 38.9586 30.2648 39.3013C29.9823 39.8315 29.7115 39.9302 28.5388 39.9298C27.4473 39.9294 27.1705 39.8373 26.8801 39.3775C26.7963 39.245 26.2572 38.0453 25.6819 36.7116L24.636 34.2866L24.5954 36.7116C24.5568 39.0169 24.5464 39.1474 24.3847 39.3572C23.8112 40.1017 22.7696 40.1199 22.3005 39.3936C22.1166 39.109 22.1163 39.1024 22.0914 35.2745C22.0777 33.1657 22.0893 31.2893 22.1172 31.1046C22.1706 30.7509 22.5344 30.2692 22.8433 30.1431C22.9352 30.1056 23.4945 30.083 24.0862 30.0927L25.1621 30.1103L25.4443 30.3841ZM39.5316 30.2272C40.2761 30.6642 40.3136 31.7163 39.6022 32.2049C39.3569 32.3733 39.2722 32.3802 37.1737 32.4036L34.9994 32.4278V33.4404V34.4529L36.4422 34.453C37.6551 34.4531 37.9293 34.475 38.1636 34.59C38.6083 34.8082 38.779 35.0958 38.779 35.6266C38.779 36.1574 38.6083 36.4449 38.1636 36.6632C37.9293 36.7782 37.6551 36.8 36.4422 36.8001L34.9994 36.8003L34.9993 37.9152C34.9992 38.8206 34.9724 39.0814 34.857 39.3025C34.4199 40.1402 33.1405 40.1402 32.7034 39.3025C32.5736 39.0539 32.5612 38.681 32.5612 35.0006C32.5612 30.5087 32.5484 30.6174 33.1217 30.2488C33.3961 30.0722 33.4166 30.0711 36.3323 30.0715C39.117 30.0717 39.2802 30.0797 39.5316 30.2272ZM48.0058 30.2169C48.3963 30.4179 48.6055 30.7886 48.598 31.2663C48.5915 31.6821 48.4465 31.9361 48.0547 32.218C47.8673 32.3529 47.6856 32.3837 46.9462 32.4058L46.0618 32.4321L46.0374 35.7703C46.0133 39.0832 46.0117 39.1107 45.8289 39.3936C45.7276 39.5504 45.5209 39.7352 45.3696 39.8044C44.784 40.0719 44.0812 39.8927 43.7588 39.3936C43.576 39.1106 43.5745 39.0838 43.5511 35.7703L43.5275 32.4322L42.6424 32.4058C41.9021 32.3837 41.7205 32.3529 41.533 32.218C41.1347 31.9315 40.983 31.6667 40.983 31.2586C40.983 30.7897 41.1991 30.414 41.582 30.2169C41.8432 30.0825 42.0925 30.0711 44.7939 30.0711C47.4953 30.0711 47.7446 30.0825 48.0058 30.2169Z" fill="#FF6B3C"/>
</svg>
