<svg width="16" height="16" viewBox="0 0 16 16" fill="none" xmlns="http://www.w3.org/2000/svg">
<path fill-rule="evenodd" clip-rule="evenodd" d="M0 7.11111C0 3.7589 0 2.0828 1.0414 1.0414C2.0828 0 3.7589 0 7.11111 0H10.4808C11.4497 0 11.9341 0 12.3697 0.180434C12.8053 0.360867 13.1479 0.703422 13.833 1.38853L14.6115 2.16703C15.2966 2.85213 15.6391 3.19469 15.8196 3.63029C16 4.0659 16 4.55034 16 5.51924V8.88889C16 12.2411 16 13.9172 14.9586 14.9586C14.4291 15.4881 13.7354 15.7484 12.7407 15.8763V14.2222L12.7407 14.1492C12.7408 13.374 12.7409 12.6774 12.6651 12.1136C12.5823 11.4981 12.3902 10.8666 11.8729 10.3493C11.3556 9.83205 10.7242 9.63989 10.1086 9.55714C9.54483 9.48134 8.84828 9.4814 8.07302 9.48148L8 9.48148H7.11111L7.0381 9.48148C6.26284 9.4814 5.56628 9.48134 5.00248 9.55714C4.38695 9.63989 3.75546 9.83205 3.2382 10.3493C2.72094 10.8666 2.52878 11.4981 2.44603 12.1136C2.37023 12.6774 2.37029 13.3739 2.37037 14.1492L2.37037 14.2222V15.7022C1.82592 15.548 1.39671 15.3139 1.0414 14.9586C0 13.9172 0 12.2411 0 8.88889V7.11111ZM10.3704 14.2222V15.9958C9.91643 16 9.42402 16 8.88889 16H7.11111C6.20551 16 5.42223 16 4.74074 15.9795V14.2222C4.74074 13.3507 4.74326 12.8162 4.79526 12.4294C4.84097 12.0895 4.90598 12.0327 4.91369 12.026L4.91431 12.0254L4.91487 12.0248C4.9216 12.0171 4.97836 11.9521 5.31833 11.9064C5.70511 11.8544 6.23955 11.8519 7.11111 11.8519H8C8.87156 11.8519 9.406 11.8544 9.79278 11.9064C10.1327 11.9521 10.1895 12.0171 10.1962 12.0248L10.1968 12.0254L10.1974 12.026C10.2051 12.0327 10.2701 12.0895 10.3159 12.4294C10.3679 12.8162 10.3704 13.3507 10.3704 14.2222ZM3.55556 3.25926C2.901 3.25926 2.37037 3.78989 2.37037 4.44444C2.37037 5.099 2.901 5.62963 3.55556 5.62963H8C8.65456 5.62963 9.18519 5.099 9.18519 4.44444C9.18519 3.78989 8.65456 3.25926 8 3.25926H3.55556Z" fill="#0A0B10"/>
</svg>
