<svg width="32" height="32" viewBox="0 0 32 32" fill="none" xmlns="http://www.w3.org/2000/svg">
<circle cx="16" cy="12" r="4" fill="#999CB1"/>
<path fill-rule="evenodd" clip-rule="evenodd" d="M23.2683 21.2111C23.3449 21.3494 23.3055 21.5219 23.1789 21.6166C21.1769 23.1135 18.692 23.9999 15.9999 23.9999C13.3079 23.9999 10.8228 23.1134 8.82085 21.6165C8.69421 21.5218 8.65484 21.3493 8.73141 21.211C9.99829 18.9219 12.7764 17.3333 15.9999 17.3333C19.2233 17.3333 22.0015 18.922 23.2683 21.2111Z" fill="#999CB1"/>
<path d="M22.6667 5.33325H23.336C24.9512 5.33325 25.7587 5.33325 26.3778 5.64259C26.946 5.92651 27.4067 6.38722 27.6907 6.95545C28 7.57453 28 8.3821 28 9.99725V10.6666M22.6667 26.6666H23.336C24.9512 26.6666 25.7587 26.6666 26.3778 26.3573C26.946 26.0733 27.4067 25.6126 27.6907 25.0444C28 24.4253 28 23.6177 28 22.0026V21.3333M9.33333 5.33325H8.664C7.04885 5.33325 6.24127 5.33325 5.6222 5.64259C5.05397 5.92651 4.59326 6.38722 4.30934 6.95545C4 7.57453 4 8.3821 4 9.99725V10.6666M9.33333 26.6666H8.664C7.04885 26.6666 6.24127 26.6666 5.6222 26.3573C5.05397 26.0733 4.59326 25.6126 4.30934 25.0444C4 24.4253 4 23.6177 4 22.0026V21.3333" stroke="#999CB1" stroke-width="3" stroke-linecap="round"/>
</svg>
