<svg width="26" height="26" viewBox="0 0 26 26" fill="none" xmlns="http://www.w3.org/2000/svg">
<path fill-rule="evenodd" clip-rule="evenodd" d="M10.8773 0.0169146C10.3736 0.133643 10.3087 0.249609 10.0575 1.4819L9.8506 2.49695L9.29152 2.70757C8.98405 2.82344 8.5225 3.01544 8.26594 3.13421L7.79945 3.35022L6.94326 2.78021C6.06757 2.19722 5.87499 2.11574 5.55659 2.19361C5.39844 2.23227 2.3716 5.19473 2.24327 5.43643C2.14614 5.61943 2.15099 5.90263 2.25476 6.10272C2.30118 6.19224 2.56759 6.6057 2.84672 7.0215L3.35428 7.77751L3.1374 8.24219C3.01811 8.49777 2.82533 8.95747 2.709 9.26371L2.49753 9.82055L1.47839 10.0266C0.375291 10.2497 0.197833 10.3252 0.0705745 10.6256C0.0141966 10.7587 0 11.2324 0 12.9793C0 15.1521 0.000766009 15.1675 0.113675 15.3484C0.176232 15.4486 0.302622 15.5696 0.394543 15.6174C0.486514 15.6652 0.997132 15.7901 1.52935 15.895L2.49697 16.0856L2.70874 16.6432C2.82523 16.9499 3.01811 17.4099 3.13735 17.6655L3.35423 18.1301L2.77921 18.9869C2.29883 19.7027 2.20042 19.8823 2.18158 20.0779C2.16692 20.2295 2.18668 20.3643 2.2376 20.4603C2.36966 20.7094 5.39399 23.6743 5.55659 23.7141C5.87152 23.7911 6.06711 23.7096 6.91078 23.1497L7.73664 22.6016V20.2169V17.8321L7.47242 17.5165C6.69737 16.5907 6.1339 15.3666 5.92504 14.1552C5.82326 13.565 5.82326 12.3427 5.92504 11.7525C6.34685 9.30623 8.02537 7.23914 10.3385 6.31736C11.1613 5.98951 11.7405 5.87654 12.7503 5.84704C13.8045 5.81627 14.386 5.89134 15.2331 6.16762C16.2985 6.51506 17.1516 7.03182 17.9864 7.83539C19.0835 8.89155 19.8165 10.2701 20.0689 11.7525C20.1697 12.3439 20.1692 13.5683 20.068 14.1552C19.8599 15.3625 19.3261 16.5311 18.557 17.4636L18.2564 17.8281V20.2149V22.6016L19.0823 23.1497C19.9259 23.7096 20.1215 23.7911 20.4365 23.7141C20.5991 23.6743 23.6234 20.7094 23.7555 20.4603C23.8064 20.3643 23.8261 20.2295 23.8115 20.0779C23.7926 19.8823 23.6942 19.7027 23.2138 18.9869L22.6388 18.1301L22.8557 17.6655C22.9749 17.4099 23.1677 16.9502 23.2841 16.644L23.4955 16.0872L24.5147 15.8811C25.6178 15.658 25.7952 15.5825 25.9225 15.2821C26.0258 15.038 26.0258 10.8697 25.9225 10.6256C25.7952 10.3252 25.6178 10.2497 24.5147 10.0266L23.4955 9.82055L23.2841 9.26371C23.1677 8.95747 22.9749 8.49777 22.8557 8.24224L22.6388 7.77762L23.2138 6.92079C23.6942 6.20501 23.7926 6.02541 23.8115 5.82985C23.8261 5.67823 23.8064 5.54344 23.7555 5.44742C23.6234 5.19829 20.5991 2.23339 20.4365 2.19361C20.1181 2.11574 19.9255 2.19722 19.0498 2.78021L18.1936 3.35022L17.7271 3.13421C17.4706 3.01544 17.009 2.82344 16.7015 2.70757L16.1425 2.49695L15.9347 1.48205C15.8098 0.872162 15.6885 0.410333 15.6308 0.324732C15.418 0.00918353 15.4264 0.0102517 13.0987 0.00135077C11.9331 -0.0031251 10.9334 0.00389388 10.8773 0.0169146ZM10.4954 8.86368C9.54017 9.40749 8.68168 10.5339 8.34729 11.6823C8.17607 12.2703 8.14951 13.3894 8.29265 13.9867C8.62101 15.3572 9.46648 16.4877 10.6484 17.1368L10.9503 17.3026L10.9648 21.3715C10.979 25.3369 10.982 25.4448 11.0815 25.6093C11.1377 25.7022 11.2641 25.8281 11.3624 25.8891C11.5352 25.9963 11.5895 26 12.9965 26C14.4035 26 14.4579 25.9963 14.6307 25.8891C14.729 25.8281 14.8554 25.7022 14.9115 25.6093C15.0111 25.4448 15.014 25.3369 15.0282 21.3715L15.0427 17.3026L15.3446 17.1368C16.5598 16.4694 17.4401 15.2613 17.7225 13.8731C17.8402 13.2945 17.8034 12.2287 17.6467 11.6823C17.3852 10.7701 16.7493 9.80951 16.0303 9.24041C15.5577 8.86642 15.3044 8.7323 15.0707 8.7323C14.8388 8.7323 14.5965 8.93498 14.5343 9.18106C14.5083 9.2839 14.3879 10.0605 14.2668 10.9067L14.0467 12.4452H12.9965H11.9464L11.7262 10.9067C11.6052 10.0605 11.4848 9.2839 11.4588 9.18106C11.4321 9.07567 11.3433 8.93692 11.2554 8.86317C11.0514 8.69227 10.7962 8.69247 10.4954 8.86368Z" fill="#999CB1"/>
</svg>
