<svg width="26" height="30" viewBox="0 0 26 30" fill="none" xmlns="http://www.w3.org/2000/svg">
<path fill-rule="evenodd" clip-rule="evenodd" d="M13.0001 0.817871C12.3427 0.817871 11.7707 1.23945 10.6268 2.08261L7.42089 4.44564C7.24068 4.57846 7.15058 4.64488 7.05385 4.70073C6.95711 4.75658 6.85454 4.8014 6.64941 4.89105L3.00001 6.48594C1.69786 7.05501 1.04678 7.33955 0.718064 7.90891C0.389344 8.47827 0.468465 9.18439 0.626707 10.5966L1.07019 14.5545C1.09512 14.777 1.10759 14.8882 1.10759 14.9999C1.10759 15.1117 1.09512 15.2229 1.07019 15.4454L0.626707 19.4033C0.468465 20.8155 0.389344 21.5216 0.718064 22.091C1.04678 22.6603 1.69786 22.9449 3.00001 23.514L6.64941 25.1088C6.85454 25.1985 6.95711 25.2433 7.05385 25.2992C7.15058 25.355 7.24068 25.4214 7.42089 25.5543L10.6268 27.9173C11.7707 28.7604 12.3427 29.182 13.0001 29.182C13.6575 29.182 14.2295 28.7604 15.3734 27.9173L18.5793 25.5543L18.5794 25.5542C18.7596 25.4214 18.8496 25.355 18.9464 25.2992C19.0431 25.2433 19.1457 25.1985 19.3508 25.1088L23.0002 23.514C24.3023 22.9449 24.9534 22.6603 25.2821 22.091C25.6109 21.5216 25.5317 20.8155 25.3735 19.4033L24.93 15.4454C24.9051 15.2229 24.8926 15.1117 24.8926 14.9999C24.8926 14.8882 24.9051 14.777 24.93 14.5545L25.3735 10.5966C25.5317 9.18439 25.6109 8.47827 25.2821 7.90891C24.9534 7.33955 24.3023 7.05501 23.0002 6.48594L19.3508 4.89105C19.1457 4.8014 19.0431 4.75658 18.9464 4.70073C18.8496 4.64488 18.7595 4.57848 18.5794 4.44567L18.5793 4.44564L15.3734 2.08261C14.2295 1.23945 13.6575 0.817871 13.0001 0.817871ZM13.0001 20.3333C15.9456 20.3333 18.3334 17.9455 18.3334 15C18.3334 12.0544 15.9456 9.66662 13.0001 9.66662C10.0546 9.66662 7.66677 12.0544 7.66677 15C7.66677 17.9455 10.0546 20.3333 13.0001 20.3333Z" fill="#999CB1"/>
</svg>
